# xmcd CD database file
#
# Track frame offsets:
#	150
#	24960
#	46745
#	79110
#	97275
#	124982
#	140457
#	160140
#	213540
#	254357
#
# Disc length: 3718 seconds
#
# Revision: 0
# Processed by: cddbd v1.5.1PL2 Copyright (c) Steve Scherf et al.
# Submitted via: CDex 1.51
#
DISCID=870e840a
DTITLE=Various Artist - Smooth and Straight
DYEAR=2000
DGENRE=Jazz
TTITLE0=4-Sight            -   Parabola
TTITLE1=Loston Harris   -  Swinging At the Haven
TTITLE2=Julian Coryell   -  Snike
TTITLE3=Jane Monheit -   Twisted
TTITLE4=T.S. Monk     -   Night Song
TTITLE5=Arturo Sandoval - Only You (No Se Tu)
TTITLE6=Dave Gruisin -   Maria
TTITLE7=Various Artist - A Tribute to Miles Davis
TTITLE8=Inner Shade   -  Little Sunflower
TTITLE9=T.S. Monk     -  Suddenly
EXTD=YEAR: 2000
EXTT0=
EXTT1=
EXTT2=
EXTT3=
EXTT4=
EXTT5=
EXTT6=
EXTT7=
EXTT8=
EXTT9=
PLAYORDER=
